<svg xmlns="http://www.w3.org/2000/svg" xml:space="preserve" style="shape-rendering:geometricPrecision;text-rendering:geometricPrecision;image-rendering:optimizeQuality;fill-rule:evenodd;clip-rule:evenodd" viewBox="0 0 132.69 132.66"><path d="M69.3 70.496c-1.13 0-4.264-.452-5.62-.903.032.42.065.968.065 1.387 0 13.404-14.825 22.416-26.873 22.416h-.58c-1.939 13.081-18.41 32.589-33.817 32.589h-2.55v6.685h2.711c15.795 0 34.657-19.185 38.403-33.235 16.407-.064 28.26-15.438 28.26-28.647zM126.079-.01v2.552c0 15.407-19.508 31.879-32.62 33.848v.55c0 12.047-8.98 26.872-22.416 26.872-7.75 0-13.24-2.778-17.214-9.53-2.39-1.194-4.974-1.678-7.331-2.034 3.036 9.787 12.498 17.119 24.255 17.119 13.21 0 28.68-11.854 28.778-28.261 14.049-3.747 33.234-22.608 33.234-38.402V-.01zM18.043 28.252c.29-.679.937-2.875.937-3.747 0-5.556-3.812-9.012-9.14-9.012-.356 0-1.26.356-1.647.388.096-.032.322-.517.322-1.389 0-2.196-2.874-2.326-4.232-4.005-.161-.13-.193-.387-.193-.549 0-.645.356-1.227.484-1.582-1.776 0-2.841.742-2.841 2.1 0 1.679 2.454 2.422 2.454 4.715-.323-.162-.678-.291-1.002-.291-.775 0-1.387.484-1.387 1.647 0 1.55 2.615.582 2.81 2.487-1.228 1.745-1.584 3.069-1.584 5.426 0 3.39 1.519 5.038 4.006 5.038 2.357 0 5.232-1.937 5.232-4.457 0-.904-.517-1.777-1.583-1.777-1.13 0-1.776.226-1.776.938 0 .258.193.42.193.678 0 .322-.42.645-.807.645-.646 0-1.519-.354-1.519-1.033 0-2.196 2.1-3.843 3.812-3.843 1.808 0 3.456 1.97 3.456 4.134 0 1.39-1.034 4.327-2.036 5.716C8.16 33.224 6.61 37.07 6.61 42.075c0 4.1 1.454 9.075 4.812 10.981-2.196.969-3.262 4.457-5.102 4.585-.26 0-.42-.45-.42-.677 0-.808.969-1.808.969-2.778 0-.58-.582-.84-1.55-.84-2.584.033-3.682 1.292-3.682 3.262 0 3.004 1.582 5.362 3.843 5.362.291 0 .645-.065 1.291-.195-.807 1.358-1.163 2.52-1.163 3.392 0 2.391 2.94 2.584 4.685 2.584.612 0 1.614-.679 2.324-1.647.872.581 1.68.807 2.455.807 2.649 0 4.587-2.712 4.587-5.36 0-1.454-1.035-2.552-3.07-2.552-1.517 0-2.81.42-2.81 1.55 0 .484.906 1.033.906 1.518q0 .096-.195.096c-1.582 0-3.26-1.29-3.26-2.777 0-1.582 2.066-3.94 3.455-4.328 1.679.743 5.102 1.712 7.202 1.712.452 0 .84 0 1.194-.097-1.226 3.36-2.098 7.816-2.098 11.434 0 3.488 3.552 11.594 7.17 13.241.032.55.097 1.324.097 1.842 0 6.363-1.873 10.625-9.657 10.625-3.908 0-9.367-2.325-9.367-6.2 0-2.52 2.423-4.134 5.103-4.134 2.035 0 3.036.645 3.036 1.873 0 .742-.258 1.744-1.195 1.744-.871 0-1.97-.807-2.648-.807-.872 0-1.42.677-1.42 2.066 0 2.649 1.225 3.004 3.486 3.004 2.165 0 3.65-.194 5.427-1.745 1.389-1.163 2.164-2.519 2.164-4.004 0-.905-.775-1.486-2.229-1.615-.84-.032-1.26-.29-1.26-.678 0-.647 1.518-1.873 1.518-2.713 0-1.712-2.777-2.875-4.715-2.875-.42 0-.807.065-1.098.162.355-1.228.58-2.293.58-3.165 0-2.52-3.325-3.876-5.521-3.876-2.39 0-7.817 2.261-7.817 5.136 0 2.55 2.81 3.617 4.006 3.617.742 0 1.905-1.454 1.905-2.617 0-.451-.775-1.71-1.356-1.71.323-.453 1.194-.614 1.84-.614.743 0 2.552.968 2.552 1.517 0 1.13-.517 2.164-1.228 3.166-3.424 2.066-6.33 4.521-6.33 8.59 0 3.844 3.843 6.848 6.234 7.881-2.875.518-7.429 3.908-7.429 9.075 0 4.587 2.842 7.85 4.877 8.56.356.452.517 1.098.517 1.356 0 1.55-5.297.84-5.297 2.908 0 2.131.614 1.582 2.293 2.26.226.355.226.516.226.711 0 1.195-3.326.193-3.456 1.163.161 1.13 1.777 1.679 2.422 1.679 1.745-.128 3.585-.968 3.585-2.649 0-.128-.031-.354-.13-.58.422.064 1.1.16 1.778.16 2.099 0 3.358-.613 3.358-3.52a3.9 3.9 0 0 0-.71-2.26c.452.128 1.228.29 1.808.29 4.813 0 6.429-1 7.235-6.072.162-1.13.744-3.972 2.617-3.972 1.518 0 .323 3.068 2.712 3.068 1.584 0 2.39-1.002 2.39-2.875-.031-2.971-1.711-4.91-4.618-4.91-1.518 0-3.423 1.067-4.457 2.23-1.163-.388-3.78-1.358-4.974-1.358-1.841 0-4.844 1.067-4.844 3.296 0 1.42 1.066 3.423 2.583 3.423.68 0 2.165 0 2.165-.678 0-.033 0-.13-.033-.194l-.065-.324c0-.354.356-.548 1.001-.613.453 0 1.131.582 1.228 1.712 0 1.518-1.228 3.392-2.778 3.392-2.842 0-6.88-3.489-6.88-6.395 0-3.845 3.747-5.297 7.946-5.846 1.519.064 3.65.387 5.167.387 7.462-.096 12.532-8.075 12.532-14.922 0-.516-.031-1.033-.064-1.517 2.26.58 4.167.904 5.716.904 3.746 0 6.493-2.455 7.784-4.167 1.13 0 1.519.323 2.681.776 0 2.552-1.162 3.81-2.648 3.81-.84 0-1.55-.516-2.326-.516-.97 0-1.712 1.647-1.712 2.746 0 2.454 1.874 2.584 4.038 2.584 2.906 0 5.167-4.36 5.297-7.43 1.905.937 1.324 3.715 1.679 3.715 1.906 0 3.327-2.39 3.327-3.489 0-.613-.484-2.712-1.421-3.681 2.196-.679 4.327-2.39 4.327-4.78 0-1.776-1.517-3.392-3.778-3.392-1.938 0-3.36 2.198-3.36 3.812 0 .42.29.517.646.517.258 0 .484-.065.678-.065.29 0 .517.097.517.356 0 1.679-1.42 2.163-2.81 2.163-1.001-.516-2.035-.58-3.036-.58 1.131-1.616 1.873-4.36 1.873-6.33 0-4.749-3.52-9.206-9.883-9.981-.839-.549-1.098-1.098-1.098-1.615 0-.872.84-1.13.937-1.13.582.128 2.034.646 2.552.646.97 0 1.389-.646 1.389-1.52 0-2.26-1.906-2.809-4.36-2.809-2.423 0-5.136 1.519-5.136 3.91 0 .871.776 2.453.776 3.52-4.2 1.84-5.911 4.81-5.911 7.363 0 3.262 2.746 7.17 7.461 7.17 3.359 0 5.136-1.777 5.136-5.555 0-1.938-1.55-2.843-2.972-2.874-1.389 0-2.1.517-2.1 1.517 0 .582.68 1.583 1.195 2.23 0 .095-.064.84-.678.84-2.358 0-3.617-1.777-3.617-3.231 0-2.326 3.715-3.52 5.49-3.52 3.07 0 6.072 1.646 6.072 4.942 0 5.264-2.648 8.945-7.558 8.945-6.458 0-11.69-4.166-11.69-10.69 0-10.464 4.714-17.052 16.31-17.052 7.363 0 14.856 2.97 18.248 9.656 2.228 1.292 5.394 1.97 7.072 2.003-3.423-11.305-14.889-17.635-25.902-17.635-6.976 0-14.986 4.522-16.342 6.427-.679.065-1.357.13-2.035.13-7.17 0-12.402-4.587-12.402-10.207 0-4.23 4.78-7.815 8.784-7.815 4.748 0 5.33 4.23 5.653 7.75-.195 1.197-2.133 1.26-2.746 1.26-1.065 0-2.972-1.161-2.972-2.196 0-2.067 3.23-.354 3.23-2.067 0-1.582-1.84-2.616-3.035-2.616-3.52 0-4.91 1.68-4.91 5.006 0 1.841.614 2.778 1.615 2.778.064 1.162.355 3.908 1.937 3.908.518 0 1.1-.355 1.777-1.098.452.29 2.1.84 2.843.84 1.42 0 2.584-.55 3.262-1.97.71.71 2.745.903 2.874.903 2.132-.031 7.719-1.938 7.719-5.328 0-2.1-1.291-3.812-3.747-3.812-.903 0-2.55.55-2.55 1.551 0 .646 1.485 1.647 1.485 2.26 0 .937-.678 1.002-1.196 1.002-.613 0-1.485-.485-1.517-1.389-.356-7.914-3.133-11.918-9.593-11.918-1.323-.001-2.26-.033-2.26-.033m58.07 20.218c0 1.001.065 2.003.582 3.003 0 1.389-.452 2.81-2.132 2.81-.29 0-.355-.225-.355-.516 0-.194.032-.42.032-.679 0-.354-.063-.613-.516-.613-1.583 0-3.78 1.389-3.78 3.327 0 2.26 1.584 3.778 3.392 3.778 2.39 0 4.101-2.132 4.78-4.327.937.936 3.068 1.42 3.65 1.42 1.13 0 3.488-1.42 3.488-3.327 0-.354-2.778.227-3.683-1.678 3.07-.13 7.397-2.39 7.397-5.297 0-2.165-.128-4.005-2.584-4.005-1.066 0-2.745.71-2.745 1.712 0 .742.516 1.453.516 2.293 0 1.485-1.226 2.68-3.778 2.68-.484-1.195-.807-1.55-.807-2.712 1.712-1.293 4.23-3.845 4.23-7.558 0-1.55-.323-3.489-.904-5.75.452.032.97.097 1.485.097 6.847 0 14.955-5.102 14.955-12.563 0-1.518-.323-3.65-.42-5.168.58-4.167 2.035-7.913 5.846-7.913 2.906 0 6.427 4.005 6.427 6.847 0 1.55-1.873 2.778-3.39 2.778-1.164-.065-1.712-.743-1.712-1.228.031-.645.258-1 .612-1l.29.096a.6.6 0 0 0 .227.033c.679 0 .679-1.519.679-2.196 0-1.519-2.003-2.584-3.424-2.584-2.23 0-3.327 3.036-3.327 4.845 0 1.194 1.001 3.843 1.357 4.974-1.163 1.033-2.23 2.938-2.23 4.457 0 2.906 1.97 4.585 4.942 4.618 1.874 0 2.875-.775 2.875-2.39 0-2.39-3.068-1.195-3.068-2.68 0-1.874 2.81-2.488 3.973-2.649 5.07-.775 6.039-2.422 6.039-7.235 0-.549-.128-1.356-.258-1.808a3.8 3.8 0 0 0 2.26.742c2.907 0 3.521-1.291 3.521-3.39 0-.68-.097-1.357-.161-1.744q.34.095.58.096c1.68 0 2.52-1.808 2.618-3.585 0-.614-.55-2.26-1.648-2.422-.97.13.032 3.455-1.163 3.455-.193 0-.356 0-.71-.226-.679-1.678-.13-2.26-2.293-2.26-2.067 0-1.324 5.296-2.874 5.296-.26 0-.937-.16-1.358-.515-.742-2.036-4.005-4.91-8.558-4.91-5.2 0-8.56 4.585-9.076 7.46-1.034-2.389-4.038-6.265-7.88-6.265-4.07 0-6.461 2.971-8.624 6.33-.613.97-2.035 1.228-3.134 1.228-.549 0-1.517-1.777-1.517-2.552 0-.614.161-1.518.614-1.809 0 .55 1.26 1.356 1.711 1.356 1.13 0 2.616-1.162 2.616-1.938 0-1.195-1.065-4.004-3.617-4.004-2.875 0-5.136 5.458-5.136 7.849 0 2.164 1.358 5.49 3.843 5.49.874 0 1.972-.193 3.198-.55-.128.259-.162.646-.162 1.067 0 1.938 1.164 4.715 2.875 4.715.84 0 2.068-1.486 2.714-1.486.387 0 .614.388.645 1.228.13 1.454.744 2.228 1.647 2.228 3.812 0 5.75-4.424 5.75-7.557 0-2.294-.388-3.522-3.004-3.522-1.389 0-2.067.55-2.067 1.454 0 .679.807 1.744.807 2.617 0 .968-1 1.195-1.775 1.195-1.228 0-1.874-1.002-1.874-3.036 0-2.649 1.647-5.103 4.166-5.103 3.843 0 6.201 5.458 6.201 9.366 0 7.816-4.263 9.69-10.626 9.69-.516 0-1.325-.097-1.84-.13-1.68-3.617-9.754-7.17-13.243-7.17-3.617 0-8.107.873-11.434 2.1.065-.355.065-.743.065-1.196 0-2.1-.937-5.523-1.712-7.202.42-1.389 2.745-3.456 4.36-3.456 1.454 0 2.778 1.68 2.778 3.262 0 .13-.033.194-.13.194-.452 0-1.032-.905-1.517-.905-1.097 0-1.55 1.325-1.55 2.842 0 2.003 1.13 3.036 2.55 3.036 2.682 0 5.396-1.937 5.396-4.553 0-.807-.26-1.615-.809-2.487.97-.71 1.648-1.712 1.648-2.293 0-1.745-.227-4.716-2.616-4.716-.872 0-2.003.356-3.359 1.163.097-.646.193-1.002.193-1.26 0-2.292-2.357-3.876-5.393-3.876-1.938 0-3.263 1.131-3.263 3.715 0 .937.291 1.55.84 1.55 1.002 0 2.003-1 2.81-1 .227 0 .679.16.679.418-.13 1.842-3.65 2.908-4.587 5.104-1.905-3.327-6.879-4.813-10.981-4.813-5.038 0-8.849 1.551-11.594 5.427-1.389 1-4.328 2.035-5.75 2.035-2.13 0-4.133-1.68-4.133-3.49 0-1.711 1.678-3.81 3.876-3.81.677 0 1.033.871 1.033 1.518 0 .388-.323.839-.647.839-.29 0-.42-.193-.678-.193-.71 0-.936.614-.936 1.744 0 1.066.872 1.583 1.777 1.583 2.518 0 4.456-2.875 4.456-5.2 0-2.519-1.68-4.038-5.039-4.038-2.357 0-3.681.356-5.425 1.582-1.906-.193-.97-2.81-2.52-2.81-1.163 0-1.614.647-1.614 1.39 0 .322.097.678.258 1-2.261 0-3.004-2.422-4.683-2.422-1.357 0-2.1 1.034-2.1 2.81.355-.096.937-.484 1.582-.484.162 0 .388.065.55.226 1.68 1.356 1.808 4.2 3.972 4.2.872 0 1.357-.227 1.42-.26-.063.356-.419 1.228-.419 1.582 0 5.33 3.456 9.142 9.044 9.142.872 0 3.068-.614 3.747-.937 0 0 .031.937.031 2.26 0 6.46 3.973 9.237 11.919 9.593.904.032 1.389.937 1.389 1.518 0 .517-.097 1.194-1.002 1.194-.645 0-1.647-1.485-2.26-1.485-1.002 0-1.551 1.647-1.551 2.552 0 2.487 1.712 3.746 3.811 3.746 3.392 0 5.297-5.555 5.329-7.719 0-.13-.193-2.164-.904-2.875 1.421-.677 1.938-1.808 1.938-3.262 0-.742-.517-2.39-.84-2.81.775-.677 1.13-1.291 1.13-1.808 0-1.583-2.745-1.874-3.908-1.938 0-1-.968-1.582-2.777-1.582-3.359 0-5.039 1.389-5.039 4.877 0 1.195 1.033 3.036 2.649 3.036 1.712 0 0-3.23 2.068-3.23 1.033 0 2.196 1.906 2.196 2.971 0 .614-.098 2.552-1.293 2.745-3.488-.29-7.72-.903-7.72-5.651 0-4.005 3.586-8.786 7.817-8.786 5.588 0 10.174 5.265 10.174 12.436 0 .677-.033 1.356-.096 2.001-1.938 1.357-6.428 9.368-6.428 16.343 0 .776.033 1.098.096 1.777 2.198.193 4.103.645 6.008 1.13-.097-.872-.162-1.291-.162-2.326 0-11.562 6.59-16.31 17.086-16.31 6.524 0 10.69 5.265 10.69 11.692 0 4.91-3.714 7.59-8.945 7.59-3.328 0-4.943-3.036-4.943-6.105 0-1.743 1.196-5.49 3.488-5.49 1.486 0 3.231 1.26 3.231 3.617 0 .647-.712.679-.84.679-.614-.517-1.615-1.195-2.23-1.195-1 0-1.517.71-1.517 2.1.065 1.452.969 3.003 2.875 3.003 3.778 0 5.587-1.809 5.587-5.136 0-4.748-3.908-7.493-7.17-7.493-2.551 0-5.522 1.712-7.364 5.943-1.066 0-2.68-.807-3.554-.807-2.388 0-3.907 2.713-3.907 5.135 0 2.454.582 4.392 2.842 4.392.872 0 1.518-.452 1.518-1.42 0-.518-.516-1.97-.646-2.52 0-.129.226-.97 1.13-.97.517 0 1.066.292 1.615 1.132.744 6.362 5.232 9.85 9.949 9.85 2.003 0 4.716-.937 6.299-2.035" style="fill:#000"/></svg>